<svg xmlns="http://www.w3.org/2000/svg" width="64" height="64"><circle cx="31.5" cy="32.5" r="27.491" fill="#FFF" stroke="#000" stroke-width="2"/><circle cx="32.26" cy="32.5" r="25.781" fill="#F2C119"/><path fill="none" stroke="#FCFBE4" stroke-linecap="round" d="M55.774 28.04c.334 1.349.584 2.792.726 4.333m-8.058-17.176a26.327 26.327 0 0 1 7.022 10.782m-46.714.954a28.987 28.987 0 0 0-.725 4.334m8.42-17.4a26.334 26.334 0 0 0-7.022 10.782"/><path fill="none" stroke="#000" stroke-width="2" d="M42.771 19.469s-4.773-1.887-9.993-.444c-5.22 1.444-10.106 10.66-6.22 20.432 3.888 9.771 14.936 6.719 16.213 5.441M20.229 29.296h18.767M20.229 35.959h18.767"/></svg>